<?xml version="1.0" encoding="UTF-8"?>
<svg width="50mm" height="58.715mm" version="1.1" viewBox="0 0 50 58.715" xmlns="http://www.w3.org/2000/svg" xmlns:cc="http://creativecommons.org/ns#" xmlns:dc="http://purl.org/dc/elements/1.1/" xmlns:rdf="http://www.w3.org/1999/02/22-rdf-syntax-ns#">
 <metadata>
  <rdf:RDF>
   <cc:Work rdf:about="">
    <dc:format>image/svg+xml</dc:format>
    <dc:type rdf:resource="http://purl.org/dc/dcmitype/StillImage"/>
    <dc:title/>
   </cc:Work>
  </rdf:RDF>
 </metadata>
 <g transform="translate(-9.7738 -47.75)">
  <path d="m34.774 47.75a25 25 0 0 0-25 25 25 25 0 0 0 7.4435 17.798 25 25 0 0 0 0.0284 0.02791l14.722 14.723c1.5547 1.5547 4.0584 1.5547 5.6131 0l14.839-14.839a25 25 0 0 0 7.3546-17.71 25 25 0 0 0-25-25zm-0.0661 10.054a14.946 14.946 0 0 1 0.0661 0 14.946 14.946 0 0 1 14.946 14.946 14.946 14.946 0 0 1-14.946 14.946 14.946 14.946 0 0 1-14.946-14.946 14.946 14.946 0 0 1 14.88-14.946zm17.246 33.108a25 25 0 0 1-0.31678 0.29456 25 25 0 0 0 0.31678-0.29456zm-33.464 0.8077a25 25 0 0 0 0.33074 0.27905 25 25 0 0 1-0.33074-0.27905zm3.1388 2.296a25 25 0 0 0 0.37 0.22427 25 25 0 0 1-0.37-0.22427zm24.128 1.1927a25 25 0 0 1-0.39016 0.18655 25 25 0 0 0 0.39016-0.18655zm-6.7691 2.1844a25 25 0 0 1-0.3979 0.0646 25 25 0 0 0 0.3979-0.0646z" fill="#6f7c91" stroke-width=".28571"/>
  <path d="m22.274 64.374v2.4996h25v-2.4996zm0 3.9998v1.9999h15.875v-1.9999zm3.5688 3.5v1.5002h21.431v-1.5002zm-3.5688 2.5001v1.4997h25v-1.4997zm0 2.5001v1.4997h25v-1.4997zm0 2.4996v1.5002h25v-1.5002z" fill="#dbdee3" stroke-width=".22263"/>
 </g>
</svg>
